<svg width="1440" height="67" viewBox="0 0 1440 67" fill="none" xmlns="http://www.w3.org/2000/svg">
<rect width="1440" height="67" fill="#42AAF5"/>
<path d="M44.4209 47C44.1276 47 43.8876 46.9067 43.7009 46.72C43.5143 46.5333 43.4209 46.2933 43.4209 46V25.28H36.3009C36.0076 25.28 35.7676 25.1867 35.5809 25C35.3943 24.7867 35.3009 24.5467 35.3009 24.28V20C35.3009 19.7067 35.3943 19.4667 35.5809 19.28C35.7676 19.0933 36.0076 19 36.3009 19H57.8209C58.1143 19 58.3543 19.0933 58.5409 19.28C58.7276 19.4667 58.8209 19.7067 58.8209 20V24.28C58.8209 24.5467 58.7276 24.7867 58.5409 25C58.3543 25.1867 58.1143 25.28 57.8209 25.28H50.7009V46C50.7009 46.2933 50.6076 46.5333 50.4209 46.72C50.2343 46.9067 49.9943 47 49.7009 47H44.4209ZM62.6256 47C62.3323 47 62.0923 46.9067 61.9056 46.72C61.719 46.5333 61.6256 46.2933 61.6256 46V27.2C61.6256 26.9067 61.719 26.6667 61.9056 26.48C62.0923 26.2933 62.3323 26.2 62.6256 26.2H67.3456C67.6123 26.2 67.839 26.2933 68.0256 26.48C68.239 26.6667 68.3456 26.9067 68.3456 27.2V46C68.3456 46.2933 68.239 46.5333 68.0256 46.72C67.839 46.9067 67.6123 47 67.3456 47H62.6256ZM62.5856 23.2C62.2923 23.2 62.0523 23.1067 61.8656 22.92C61.679 22.7333 61.5856 22.4933 61.5856 22.2V18.64C61.5856 18.3467 61.679 18.1067 61.8656 17.92C62.0523 17.7067 62.2923 17.6 62.5856 17.6H67.3456C67.639 17.6 67.879 17.7067 68.0656 17.92C68.279 18.1067 68.3856 18.3467 68.3856 18.64V22.2C68.3856 22.4933 68.279 22.7333 68.0656 22.92C67.879 23.1067 67.639 23.2 67.3456 23.2H62.5856ZM83.6719 47C81.9652 47 80.4852 46.7333 79.2319 46.2C78.0052 45.64 77.0585 44.7867 76.3919 43.64C75.7252 42.4667 75.3919 40.96 75.3919 39.12V31.44H72.2719C71.9785 31.44 71.7252 31.3467 71.5119 31.16C71.3252 30.9733 71.2319 30.7333 71.2319 30.44V27.2C71.2319 26.9067 71.3252 26.6667 71.5119 26.48C71.7252 26.2933 71.9785 26.2 72.2719 26.2H75.3919V19.6C75.3919 19.3067 75.4852 19.0667 75.6719 18.88C75.8852 18.6933 76.1252 18.6 76.3919 18.6H81.0319C81.3252 18.6 81.5652 18.6933 81.7519 18.88C81.9385 19.0667 82.0319 19.3067 82.0319 19.6V26.2H87.0319C87.3252 26.2 87.5652 26.2933 87.7519 26.48C87.9385 26.6667 88.0319 26.9067 88.0319 27.2V30.44C88.0319 30.7333 87.9385 30.9733 87.7519 31.16C87.5652 31.3467 87.3252 31.44 87.0319 31.44H82.0319V38.56C82.0319 39.4667 82.2052 40.1867 82.5519 40.72C82.8985 41.2533 83.4852 41.52 84.3119 41.52H87.3919C87.6852 41.52 87.9252 41.6133 88.1119 41.8C88.2985 41.9867 88.3919 42.2267 88.3919 42.52V46C88.3919 46.2933 88.2985 46.5333 88.1119 46.72C87.9252 46.9067 87.6852 47 87.3919 47H83.6719ZM92.7038 47C92.4104 47 92.1704 46.9067 91.9837 46.72C91.7971 46.5333 91.7038 46.2933 91.7038 46V19.6C91.7038 19.3067 91.7971 19.0667 91.9837 18.88C92.1704 18.6933 92.4104 18.6 92.7038 18.6H97.4238C97.7171 18.6 97.9571 18.6933 98.1438 18.88C98.3304 19.0667 98.4238 19.3067 98.4238 19.6V46C98.4238 46.2933 98.3304 46.5333 98.1438 46.72C97.9571 46.9067 97.7171 47 97.4238 47H92.7038ZM112.749 47.4C109.602 47.4 107.096 46.5467 105.229 44.84C103.362 43.1333 102.389 40.6 102.309 37.24C102.309 37.0533 102.309 36.8133 102.309 36.52C102.309 36.2267 102.309 36 102.309 35.84C102.389 33.7333 102.856 31.9333 103.709 30.44C104.589 28.92 105.789 27.7733 107.309 27C108.856 26.2 110.656 25.8 112.709 25.8C115.056 25.8 116.989 26.2667 118.509 27.2C120.056 28.1333 121.216 29.4 121.989 31C122.762 32.6 123.149 34.4267 123.149 36.48V37.44C123.149 37.7333 123.042 37.9733 122.829 38.16C122.642 38.3467 122.416 38.44 122.149 38.44H109.349C109.349 38.4667 109.349 38.5067 109.349 38.56C109.349 38.6133 109.349 38.6667 109.349 38.72C109.376 39.4933 109.509 40.2 109.749 40.84C109.989 41.48 110.362 41.9867 110.869 42.36C111.376 42.7333 111.989 42.92 112.709 42.92C113.242 42.92 113.682 42.84 114.029 42.68C114.402 42.4933 114.709 42.2933 114.949 42.08C115.189 41.84 115.376 41.64 115.509 41.48C115.749 41.2133 115.936 41.0533 116.069 41C116.229 40.92 116.469 40.88 116.789 40.88H121.749C122.016 40.88 122.229 40.96 122.389 41.12C122.576 41.2533 122.656 41.4533 122.629 41.72C122.602 42.1733 122.376 42.72 121.949 43.36C121.522 44 120.896 44.64 120.069 45.28C119.269 45.8933 118.256 46.4 117.029 46.8C115.802 47.2 114.376 47.4 112.749 47.4ZM109.349 34.48H116.109V34.4C116.109 33.5467 115.976 32.8 115.709 32.16C115.469 31.52 115.082 31.0267 114.549 30.68C114.042 30.3333 113.429 30.16 112.709 30.16C111.989 30.16 111.376 30.3333 110.869 30.68C110.389 31.0267 110.016 31.52 109.749 32.16C109.482 32.8 109.349 33.5467 109.349 34.4V34.48Z" fill="black"/>
<path d="M1105.06 40.5C1104.95 40.5 1104.86 40.46 1104.78 40.38C1104.7 40.3 1104.66 40.2067 1104.66 40.1C1104.66 40.0333 1104.67 39.96 1104.7 39.88L1109.76 26.9C1109.81 26.7667 1109.88 26.6667 1109.96 26.6C1110.05 26.5333 1110.18 26.5 1110.34 26.5H1111.02C1111.18 26.5 1111.3 26.5333 1111.38 26.6C1111.47 26.6667 1111.54 26.7667 1111.6 26.9L1116.66 39.88C1116.68 39.96 1116.7 40.0333 1116.7 40.1C1116.7 40.2067 1116.66 40.3 1116.58 40.38C1116.5 40.46 1116.4 40.5 1116.3 40.5H1115.9C1115.76 40.5 1115.66 40.4667 1115.6 40.4C1115.53 40.32 1115.48 40.2533 1115.46 40.2L1114.22 37H1107.14L1105.9 40.2C1105.88 40.2533 1105.84 40.32 1105.76 40.4C1105.69 40.4667 1105.59 40.5 1105.46 40.5H1105.06ZM1107.62 35.8H1113.74L1110.68 27.92L1107.62 35.8ZM1123.4 40.7C1122.58 40.7 1121.89 40.5533 1121.34 40.26C1120.81 39.9533 1120.38 39.5733 1120.04 39.12V40.06C1120.04 40.1933 1120 40.3 1119.92 40.38C1119.84 40.46 1119.74 40.5 1119.6 40.5H1119.26C1119.13 40.5 1119.02 40.46 1118.94 40.38C1118.86 40.3 1118.82 40.1933 1118.82 40.06V26.74C1118.82 26.6067 1118.86 26.5 1118.94 26.42C1119.02 26.34 1119.13 26.3 1119.26 26.3H1119.6C1119.74 26.3 1119.84 26.34 1119.92 26.42C1120 26.5 1120.04 26.6067 1120.04 26.74V31.48C1120.38 31.04 1120.81 30.6667 1121.34 30.36C1121.89 30.0533 1122.58 29.9 1123.4 29.9C1124.19 29.9 1124.85 30.04 1125.38 30.32C1125.92 30.6 1126.35 30.9733 1126.68 31.44C1127.02 31.9067 1127.26 32.4267 1127.42 33C1127.58 33.5733 1127.67 34.1533 1127.68 34.74C1127.7 34.94 1127.7 35.1267 1127.7 35.3C1127.7 35.4733 1127.7 35.66 1127.68 35.86C1127.67 36.4467 1127.58 37.0267 1127.42 37.6C1127.26 38.1733 1127.02 38.6933 1126.68 39.16C1126.35 39.6267 1125.92 40 1125.38 40.28C1124.85 40.56 1124.19 40.7 1123.4 40.7ZM1123.28 39.54C1124.07 39.54 1124.69 39.3667 1125.14 39.02C1125.6 38.6733 1125.92 38.22 1126.12 37.66C1126.32 37.1 1126.44 36.5 1126.46 35.86C1126.48 35.4867 1126.48 35.1133 1126.46 34.74C1126.44 34.1 1126.32 33.5 1126.12 32.94C1125.92 32.38 1125.6 31.9267 1125.14 31.58C1124.69 31.2333 1124.07 31.06 1123.28 31.06C1122.55 31.06 1121.94 31.2333 1121.46 31.58C1121 31.9267 1120.64 32.36 1120.4 32.88C1120.18 33.4 1120.06 33.9267 1120.04 34.46C1120.03 34.66 1120.02 34.92 1120.02 35.24C1120.02 35.56 1120.03 35.82 1120.04 36.02C1120.07 36.5667 1120.19 37.1133 1120.4 37.66C1120.63 38.1933 1120.98 38.64 1121.44 39C1121.91 39.36 1122.52 39.54 1123.28 39.54ZM1134.37 40.7C1133.41 40.7 1132.6 40.5 1131.95 40.1C1131.31 39.7 1130.81 39.1533 1130.47 38.46C1130.13 37.7667 1129.95 36.9933 1129.93 36.14C1129.91 35.94 1129.91 35.66 1129.91 35.3C1129.91 34.94 1129.91 34.66 1129.93 34.46C1129.95 33.5933 1130.13 32.82 1130.47 32.14C1130.81 31.4467 1131.31 30.9 1131.95 30.5C1132.6 30.1 1133.41 29.9 1134.37 29.9C1135.33 29.9 1136.13 30.1 1136.77 30.5C1137.42 30.9 1137.91 31.4467 1138.25 32.14C1138.59 32.82 1138.78 33.5933 1138.81 34.46C1138.82 34.66 1138.83 34.94 1138.83 35.3C1138.83 35.66 1138.82 35.94 1138.81 36.14C1138.78 36.9933 1138.59 37.7667 1138.25 38.46C1137.91 39.1533 1137.42 39.7 1136.77 40.1C1136.13 40.5 1135.33 40.7 1134.37 40.7ZM1134.37 39.54C1135.3 39.54 1136.06 39.24 1136.65 38.64C1137.23 38.04 1137.55 37.1733 1137.59 36.04C1137.6 35.84 1137.61 35.5933 1137.61 35.3C1137.61 35.0067 1137.6 34.76 1137.59 34.56C1137.55 33.4133 1137.23 32.5467 1136.65 31.96C1136.06 31.36 1135.3 31.06 1134.37 31.06C1133.43 31.06 1132.67 31.36 1132.09 31.96C1131.5 32.5467 1131.19 33.4133 1131.15 34.56C1131.13 34.76 1131.13 35.0067 1131.13 35.3C1131.13 35.5933 1131.13 35.84 1131.15 36.04C1131.19 37.1733 1131.5 38.04 1132.09 38.64C1132.67 39.24 1133.43 39.54 1134.37 39.54ZM1145.46 40.7C1144.55 40.7 1143.8 40.5067 1143.2 40.12C1142.61 39.72 1142.17 39.18 1141.88 38.5C1141.6 37.82 1141.46 37.06 1141.46 36.22V30.54C1141.46 30.4067 1141.5 30.3 1141.58 30.22C1141.66 30.14 1141.76 30.1 1141.9 30.1H1142.24C1142.37 30.1 1142.48 30.14 1142.56 30.22C1142.64 30.3 1142.68 30.4067 1142.68 30.54V36.12C1142.68 38.4 1143.67 39.54 1145.66 39.54C1146.6 39.54 1147.36 39.24 1147.94 38.64C1148.51 38.0267 1148.8 37.1867 1148.8 36.12V30.54C1148.8 30.4067 1148.84 30.3 1148.92 30.22C1149 30.14 1149.1 30.1 1149.24 30.1H1149.58C1149.71 30.1 1149.82 30.14 1149.9 30.22C1149.98 30.3 1150.02 30.4067 1150.02 30.54V40.06C1150.02 40.1933 1149.98 40.3 1149.9 40.38C1149.82 40.46 1149.71 40.5 1149.58 40.5H1149.24C1149.1 40.5 1149 40.46 1148.92 40.38C1148.84 40.3 1148.8 40.1933 1148.8 40.06V39.12C1148.44 39.5867 1148 39.9667 1147.5 40.26C1147 40.5533 1146.32 40.7 1145.46 40.7ZM1156.76 40.5C1156.06 40.5 1155.52 40.3533 1155.12 40.06C1154.72 39.7667 1154.44 39.3667 1154.28 38.86C1154.12 38.3533 1154.04 37.7867 1154.04 37.16V31.26H1152.48C1152.34 31.26 1152.24 31.22 1152.16 31.14C1152.08 31.06 1152.04 30.9533 1152.04 30.82V30.54C1152.04 30.4067 1152.08 30.3 1152.16 30.22C1152.24 30.14 1152.34 30.1 1152.48 30.1H1154.04V26.74C1154.04 26.6067 1154.08 26.5 1154.16 26.42C1154.24 26.34 1154.34 26.3 1154.48 26.3H1154.82C1154.95 26.3 1155.06 26.34 1155.14 26.42C1155.22 26.5 1155.26 26.6067 1155.26 26.74V30.1H1157.74C1157.87 30.1 1157.98 30.14 1158.06 30.22C1158.14 30.3 1158.18 30.4067 1158.18 30.54V30.82C1158.18 30.9533 1158.14 31.06 1158.06 31.14C1157.98 31.22 1157.87 31.26 1157.74 31.26H1155.26V37.08C1155.26 37.7867 1155.37 38.34 1155.6 38.74C1155.84 39.14 1156.26 39.34 1156.86 39.34H1157.94C1158.07 39.34 1158.18 39.38 1158.26 39.46C1158.34 39.54 1158.38 39.6467 1158.38 39.78V40.06C1158.38 40.1933 1158.34 40.3 1158.26 40.38C1158.18 40.46 1158.07 40.5 1157.94 40.5H1156.76Z" fill="black"/>
<path d="M1221.6 40.5C1221.46 40.5 1221.36 40.46 1221.28 40.38C1221.2 40.3 1221.16 40.1933 1221.16 40.06V26.94C1221.16 26.8067 1221.2 26.7 1221.28 26.62C1221.36 26.54 1221.46 26.5 1221.6 26.5H1221.98C1222.11 26.5 1222.22 26.54 1222.3 26.62C1222.38 26.7 1222.42 26.8067 1222.42 26.94V39.3H1229.32C1229.46 39.3 1229.58 39.34 1229.66 39.42C1229.74 39.5 1229.78 39.6133 1229.78 39.76V40.06C1229.78 40.1933 1229.74 40.3 1229.66 40.38C1229.58 40.46 1229.46 40.5 1229.32 40.5H1221.6ZM1235.56 40.7C1234.6 40.7 1233.79 40.5 1233.14 40.1C1232.5 39.7 1232.01 39.1533 1231.66 38.46C1231.33 37.7667 1231.15 36.9933 1231.12 36.14C1231.11 35.94 1231.1 35.66 1231.1 35.3C1231.1 34.94 1231.11 34.66 1231.12 34.46C1231.15 33.5933 1231.33 32.82 1231.66 32.14C1232.01 31.4467 1232.5 30.9 1233.14 30.5C1233.79 30.1 1234.6 29.9 1235.56 29.9C1236.52 29.9 1237.32 30.1 1237.96 30.5C1238.61 30.9 1239.11 31.4467 1239.44 32.14C1239.79 32.82 1239.97 33.5933 1240 34.46C1240.01 34.66 1240.02 34.94 1240.02 35.3C1240.02 35.66 1240.01 35.94 1240 36.14C1239.97 36.9933 1239.79 37.7667 1239.44 38.46C1239.11 39.1533 1238.61 39.7 1237.96 40.1C1237.32 40.5 1236.52 40.7 1235.56 40.7ZM1235.56 39.54C1236.49 39.54 1237.25 39.24 1237.84 38.64C1238.43 38.04 1238.74 37.1733 1238.78 36.04C1238.79 35.84 1238.8 35.5933 1238.8 35.3C1238.8 35.0067 1238.79 34.76 1238.78 34.56C1238.74 33.4133 1238.43 32.5467 1237.84 31.96C1237.25 31.36 1236.49 31.06 1235.56 31.06C1234.63 31.06 1233.87 31.36 1233.28 31.96C1232.69 32.5467 1232.38 33.4133 1232.34 34.56C1232.33 34.76 1232.32 35.0067 1232.32 35.3C1232.32 35.5933 1232.33 35.84 1232.34 36.04C1232.38 37.1733 1232.69 38.04 1233.28 38.64C1233.87 39.24 1234.63 39.54 1235.56 39.54ZM1246.63 44.9C1245.78 44.9 1245.08 44.7867 1244.53 44.56C1244 44.3333 1243.58 44.0533 1243.27 43.72C1242.98 43.4 1242.77 43.0733 1242.65 42.74C1242.53 42.42 1242.46 42.16 1242.45 41.96C1242.44 41.8267 1242.48 41.7133 1242.57 41.62C1242.66 41.54 1242.77 41.5 1242.89 41.5H1243.17C1243.28 41.5 1243.37 41.52 1243.45 41.56C1243.53 41.6133 1243.6 41.7333 1243.65 41.92C1243.73 42.1333 1243.86 42.38 1244.03 42.66C1244.22 42.9533 1244.5 43.2067 1244.89 43.42C1245.29 43.6333 1245.84 43.74 1246.53 43.74C1247.26 43.74 1247.88 43.6467 1248.37 43.46C1248.86 43.2733 1249.24 42.94 1249.49 42.46C1249.76 41.9933 1249.89 41.34 1249.89 40.5V39.12C1249.56 39.5733 1249.12 39.9533 1248.57 40.26C1248.04 40.5533 1247.36 40.7 1246.53 40.7C1245.76 40.7 1245.1 40.56 1244.55 40.28C1244.02 40 1243.58 39.6267 1243.25 39.16C1242.92 38.6933 1242.67 38.1733 1242.51 37.6C1242.35 37.0267 1242.26 36.4467 1242.25 35.86C1242.24 35.4867 1242.24 35.1133 1242.25 34.74C1242.26 34.1533 1242.35 33.5733 1242.51 33C1242.67 32.4267 1242.92 31.9067 1243.25 31.44C1243.58 30.9733 1244.02 30.6 1244.55 30.32C1245.1 30.04 1245.76 29.9 1246.53 29.9C1247.36 29.9 1248.04 30.0533 1248.57 30.36C1249.12 30.6667 1249.56 31.04 1249.89 31.48V30.56C1249.89 30.4267 1249.93 30.32 1250.01 30.24C1250.09 30.1467 1250.2 30.1 1250.33 30.1H1250.65C1250.78 30.1 1250.89 30.1467 1250.97 30.24C1251.06 30.32 1251.11 30.4267 1251.11 30.56V40.3C1251.11 41.1533 1250.98 41.9267 1250.73 42.62C1250.48 43.3133 1250.02 43.8667 1249.37 44.28C1248.73 44.6933 1247.82 44.9 1246.63 44.9ZM1246.65 39.54C1247.41 39.54 1248.02 39.36 1248.49 39C1248.96 38.64 1249.3 38.1933 1249.51 37.66C1249.74 37.1133 1249.86 36.5667 1249.89 36.02C1249.9 35.82 1249.91 35.58 1249.91 35.3C1249.91 35.02 1249.9 34.78 1249.89 34.58C1249.86 34.0333 1249.74 33.4933 1249.51 32.96C1249.3 32.4133 1248.96 31.96 1248.49 31.6C1248.02 31.24 1247.41 31.06 1246.65 31.06C1245.88 31.06 1245.26 31.2333 1244.79 31.58C1244.34 31.9267 1244.01 32.38 1243.81 32.94C1243.61 33.5 1243.5 34.1 1243.47 34.74C1243.46 35.1133 1243.46 35.4867 1243.47 35.86C1243.5 36.5 1243.61 37.1 1243.81 37.66C1244.01 38.22 1244.34 38.6733 1244.79 39.02C1245.26 39.3667 1245.88 39.54 1246.65 39.54ZM1260.23 40.5C1260.09 40.5 1259.99 40.46 1259.91 40.38C1259.83 40.3 1259.79 40.1933 1259.79 40.06V26.94C1259.79 26.8067 1259.83 26.7 1259.91 26.62C1259.99 26.54 1260.09 26.5 1260.23 26.5H1260.61C1260.74 26.5 1260.85 26.54 1260.93 26.62C1261.01 26.7 1261.05 26.8067 1261.05 26.94V40.06C1261.05 40.1933 1261.01 40.3 1260.93 40.38C1260.85 40.46 1260.74 40.5 1260.61 40.5H1260.23ZM1264.99 40.5C1264.85 40.5 1264.75 40.46 1264.67 40.38C1264.59 40.3 1264.55 40.1933 1264.55 40.06V30.54C1264.55 30.4067 1264.59 30.3 1264.67 30.22C1264.75 30.14 1264.85 30.1 1264.99 30.1H1265.33C1265.46 30.1 1265.57 30.14 1265.65 30.22C1265.73 30.3 1265.77 30.4067 1265.77 30.54V31.48C1266.13 31.0133 1266.56 30.6333 1267.07 30.34C1267.59 30.0467 1268.27 29.9 1269.13 29.9C1270.03 29.9 1270.79 30.1 1271.39 30.5C1272 30.8867 1272.45 31.42 1272.75 32.1C1273.05 32.7667 1273.21 33.5267 1273.21 34.38V40.06C1273.21 40.1933 1273.17 40.3 1273.09 40.38C1273.01 40.46 1272.9 40.5 1272.77 40.5H1272.43C1272.29 40.5 1272.19 40.46 1272.11 40.38C1272.03 40.3 1271.99 40.1933 1271.99 40.06V34.48C1271.99 33.4133 1271.73 32.58 1271.21 31.98C1270.69 31.3667 1269.93 31.06 1268.93 31.06C1267.98 31.06 1267.21 31.3667 1266.63 31.98C1266.05 32.58 1265.77 33.4133 1265.77 34.48V40.06C1265.77 40.1933 1265.73 40.3 1265.65 40.38C1265.57 40.46 1265.46 40.5 1265.33 40.5H1264.99Z" fill="black"/>
<rect x="1325" y="11.5" width="91" height="44" rx="10" fill="black"/>
<path d="M1341.29 40.7C1340.21 40.7 1339.29 40.5267 1338.53 40.18C1337.78 39.8333 1337.21 39.3867 1336.81 38.84C1336.41 38.2933 1336.19 37.7133 1336.17 37.1C1336.17 36.9933 1336.21 36.9 1336.29 36.82C1336.37 36.74 1336.47 36.7 1336.59 36.7H1336.99C1337.12 36.7 1337.22 36.74 1337.29 36.82C1337.37 36.9 1337.41 36.9933 1337.43 37.1C1337.48 37.4733 1337.65 37.8467 1337.93 38.22C1338.21 38.58 1338.62 38.8867 1339.17 39.14C1339.71 39.38 1340.42 39.5 1341.29 39.5C1342.59 39.5 1343.55 39.2667 1344.15 38.8C1344.75 38.32 1345.05 37.68 1345.05 36.88C1345.05 36.3467 1344.89 35.92 1344.57 35.6C1344.26 35.2667 1343.79 34.9733 1343.15 34.72C1342.51 34.4533 1341.69 34.16 1340.69 33.84C1339.74 33.5333 1338.96 33.22 1338.35 32.9C1337.73 32.5667 1337.28 32.1667 1336.99 31.7C1336.71 31.2333 1336.57 30.6333 1336.57 29.9C1336.57 29.22 1336.75 28.6133 1337.11 28.08C1337.47 27.5333 1337.99 27.1 1338.67 26.78C1339.36 26.46 1340.2 26.3 1341.19 26.3C1341.97 26.3 1342.66 26.4067 1343.25 26.62C1343.83 26.8333 1344.32 27.12 1344.71 27.48C1345.09 27.8267 1345.39 28.2067 1345.59 28.62C1345.79 29.02 1345.89 29.4133 1345.91 29.8C1345.91 29.8933 1345.87 29.9867 1345.81 30.08C1345.74 30.16 1345.63 30.2 1345.49 30.2H1345.09C1345.02 30.2 1344.93 30.1733 1344.83 30.12C1344.73 30.0667 1344.67 29.96 1344.65 29.8C1344.57 29.1333 1344.21 28.5867 1343.59 28.16C1342.97 27.72 1342.17 27.5 1341.19 27.5C1340.2 27.5 1339.39 27.6933 1338.77 28.08C1338.14 28.4667 1337.83 29.0733 1337.83 29.9C1337.83 30.4333 1337.97 30.8733 1338.25 31.22C1338.53 31.5533 1338.97 31.8533 1339.57 32.12C1340.17 32.3733 1340.94 32.6533 1341.89 32.96C1342.89 33.28 1343.71 33.6 1344.37 33.92C1345.02 34.24 1345.51 34.6333 1345.83 35.1C1346.15 35.5533 1346.31 36.1467 1346.31 36.88C1346.31 37.6933 1346.1 38.3867 1345.69 38.96C1345.29 39.52 1344.71 39.9533 1343.97 40.26C1343.22 40.5533 1342.33 40.7 1341.29 40.7ZM1349.38 40.5C1349.24 40.5 1349.14 40.46 1349.06 40.38C1348.98 40.3 1348.94 40.1933 1348.94 40.06V30.54C1348.94 30.4067 1348.98 30.3 1349.06 30.22C1349.14 30.14 1349.24 30.1 1349.38 30.1H1349.72C1349.85 30.1 1349.96 30.14 1350.04 30.22C1350.12 30.3 1350.16 30.4067 1350.16 30.54V40.06C1350.16 40.1933 1350.12 40.3 1350.04 40.38C1349.96 40.46 1349.85 40.5 1349.72 40.5H1349.38ZM1349.16 27.96C1349.02 27.96 1348.92 27.92 1348.84 27.84C1348.76 27.76 1348.72 27.6533 1348.72 27.52V26.76C1348.72 26.6267 1348.76 26.52 1348.84 26.44C1348.92 26.3467 1349.02 26.3 1349.16 26.3H1349.92C1350.05 26.3 1350.16 26.3467 1350.24 26.44C1350.33 26.52 1350.38 26.6267 1350.38 26.76V27.52C1350.38 27.6533 1350.33 27.76 1350.24 27.84C1350.16 27.92 1350.05 27.96 1349.92 27.96H1349.16ZM1357.27 44.9C1356.42 44.9 1355.72 44.7867 1355.17 44.56C1354.64 44.3333 1354.22 44.0533 1353.91 43.72C1353.62 43.4 1353.41 43.0733 1353.29 42.74C1353.17 42.42 1353.1 42.16 1353.09 41.96C1353.08 41.8267 1353.12 41.7133 1353.21 41.62C1353.3 41.54 1353.41 41.5 1353.53 41.5H1353.81C1353.92 41.5 1354.01 41.52 1354.09 41.56C1354.17 41.6133 1354.24 41.7333 1354.29 41.92C1354.37 42.1333 1354.5 42.38 1354.67 42.66C1354.86 42.9533 1355.14 43.2067 1355.53 43.42C1355.93 43.6333 1356.48 43.74 1357.17 43.74C1357.9 43.74 1358.52 43.6467 1359.01 43.46C1359.5 43.2733 1359.88 42.94 1360.13 42.46C1360.4 41.9933 1360.53 41.34 1360.53 40.5V39.12C1360.2 39.5733 1359.76 39.9533 1359.21 40.26C1358.68 40.5533 1358 40.7 1357.17 40.7C1356.4 40.7 1355.74 40.56 1355.19 40.28C1354.66 40 1354.22 39.6267 1353.89 39.16C1353.56 38.6933 1353.31 38.1733 1353.15 37.6C1352.99 37.0267 1352.9 36.4467 1352.89 35.86C1352.88 35.4867 1352.88 35.1133 1352.89 34.74C1352.9 34.1533 1352.99 33.5733 1353.15 33C1353.31 32.4267 1353.56 31.9067 1353.89 31.44C1354.22 30.9733 1354.66 30.6 1355.19 30.32C1355.74 30.04 1356.4 29.9 1357.17 29.9C1358 29.9 1358.68 30.0533 1359.21 30.36C1359.76 30.6667 1360.2 31.04 1360.53 31.48V30.56C1360.53 30.4267 1360.57 30.32 1360.65 30.24C1360.73 30.1467 1360.84 30.1 1360.97 30.1H1361.29C1361.42 30.1 1361.53 30.1467 1361.61 30.24C1361.7 30.32 1361.75 30.4267 1361.75 30.56V40.3C1361.75 41.1533 1361.62 41.9267 1361.37 42.62C1361.12 43.3133 1360.66 43.8667 1360.01 44.28C1359.37 44.6933 1358.46 44.9 1357.27 44.9ZM1357.29 39.54C1358.05 39.54 1358.66 39.36 1359.13 39C1359.6 38.64 1359.94 38.1933 1360.15 37.66C1360.38 37.1133 1360.5 36.5667 1360.53 36.02C1360.54 35.82 1360.55 35.58 1360.55 35.3C1360.55 35.02 1360.54 34.78 1360.53 34.58C1360.5 34.0333 1360.38 33.4933 1360.15 32.96C1359.94 32.4133 1359.6 31.96 1359.13 31.6C1358.66 31.24 1358.05 31.06 1357.29 31.06C1356.52 31.06 1355.9 31.2333 1355.43 31.58C1354.98 31.9267 1354.65 32.38 1354.45 32.94C1354.25 33.5 1354.14 34.1 1354.11 34.74C1354.1 35.1133 1354.1 35.4867 1354.11 35.86C1354.14 36.5 1354.25 37.1 1354.45 37.66C1354.65 38.22 1354.98 38.6733 1355.43 39.02C1355.9 39.3667 1356.52 39.54 1357.29 39.54ZM1365.45 40.5C1365.32 40.5 1365.21 40.46 1365.13 40.38C1365.05 40.3 1365.01 40.1933 1365.01 40.06V30.54C1365.01 30.4067 1365.05 30.3 1365.13 30.22C1365.21 30.14 1365.32 30.1 1365.45 30.1H1365.79C1365.92 30.1 1366.03 30.14 1366.11 30.22C1366.19 30.3 1366.23 30.4067 1366.23 30.54V31.48C1366.59 31.0133 1367.02 30.6333 1367.53 30.34C1368.05 30.0467 1368.74 29.9 1369.59 29.9C1370.5 29.9 1371.25 30.1 1371.85 30.5C1372.46 30.8867 1372.92 31.42 1373.21 32.1C1373.52 32.7667 1373.67 33.5267 1373.67 34.38V40.06C1373.67 40.1933 1373.63 40.3 1373.55 40.38C1373.47 40.46 1373.36 40.5 1373.23 40.5H1372.89C1372.76 40.5 1372.65 40.46 1372.57 40.38C1372.49 40.3 1372.45 40.1933 1372.45 40.06V34.48C1372.45 33.4133 1372.19 32.58 1371.67 31.98C1371.15 31.3667 1370.39 31.06 1369.39 31.06C1368.44 31.06 1367.68 31.3667 1367.09 31.98C1366.52 32.58 1366.23 33.4133 1366.23 34.48V40.06C1366.23 40.1933 1366.19 40.3 1366.11 40.38C1366.03 40.46 1365.92 40.5 1365.79 40.5H1365.45ZM1387.26 40.7C1386.18 40.7 1385.26 40.5 1384.48 40.1C1383.72 39.7 1383.14 39.0867 1382.72 38.26C1382.31 37.4333 1382.1 36.3733 1382.1 35.08V26.96C1382.1 26.8133 1382.14 26.7 1382.22 26.62C1382.3 26.54 1382.41 26.5 1382.54 26.5H1382.9C1383.05 26.5 1383.16 26.54 1383.24 26.62C1383.32 26.7 1383.36 26.8133 1383.36 26.96V35.14C1383.36 36.6333 1383.71 37.7333 1384.4 38.44C1385.11 39.1467 1386.06 39.5 1387.26 39.5C1388.45 39.5 1389.39 39.1467 1390.08 38.44C1390.79 37.7333 1391.14 36.6333 1391.14 35.14V26.96C1391.14 26.8133 1391.18 26.7 1391.26 26.62C1391.36 26.54 1391.47 26.5 1391.6 26.5H1391.96C1392.1 26.5 1392.2 26.54 1392.28 26.62C1392.36 26.7 1392.4 26.8133 1392.4 26.96V35.08C1392.4 36.3733 1392.2 37.4333 1391.78 38.26C1391.38 39.0867 1390.8 39.7 1390.04 40.1C1389.28 40.5 1388.36 40.7 1387.26 40.7ZM1396.25 44.3C1396.12 44.3 1396.01 44.26 1395.93 44.18C1395.85 44.1 1395.81 43.9933 1395.81 43.86V30.54C1395.81 30.4067 1395.85 30.3 1395.93 30.22C1396.01 30.14 1396.12 30.1 1396.25 30.1H1396.59C1396.73 30.1 1396.83 30.14 1396.91 30.22C1396.99 30.3 1397.03 30.4067 1397.03 30.54V31.48C1397.37 31.0267 1397.8 30.6533 1398.33 30.36C1398.88 30.0533 1399.57 29.9 1400.39 29.9C1401.18 29.9 1401.84 30.04 1402.37 30.32C1402.91 30.5867 1403.34 30.9467 1403.67 31.4C1404.01 31.8533 1404.25 32.36 1404.41 32.92C1404.57 33.48 1404.66 34.0533 1404.67 34.64C1404.69 34.84 1404.69 35.06 1404.69 35.3C1404.69 35.54 1404.69 35.76 1404.67 35.96C1404.66 36.5467 1404.57 37.12 1404.41 37.68C1404.25 38.24 1404.01 38.7467 1403.67 39.2C1403.34 39.6533 1402.91 40.02 1402.37 40.3C1401.84 40.5667 1401.18 40.7 1400.39 40.7C1399.57 40.7 1398.88 40.5467 1398.33 40.24C1397.8 39.9333 1397.37 39.56 1397.03 39.12V43.86C1397.03 43.9933 1396.99 44.1 1396.91 44.18C1396.83 44.26 1396.73 44.3 1396.59 44.3H1396.25ZM1400.27 39.54C1401.06 39.54 1401.68 39.3667 1402.13 39.02C1402.59 38.6733 1402.91 38.22 1403.11 37.66C1403.31 37.1 1403.43 36.5 1403.45 35.86C1403.47 35.4867 1403.47 35.1133 1403.45 34.74C1403.43 34.1 1403.31 33.5 1403.11 32.94C1402.91 32.38 1402.59 31.9267 1402.13 31.58C1401.68 31.2333 1401.06 31.06 1400.27 31.06C1399.51 31.06 1398.9 31.24 1398.43 31.6C1397.97 31.96 1397.62 32.4133 1397.39 32.96C1397.18 33.4933 1397.06 34.0333 1397.03 34.58C1397.02 34.78 1397.01 35.04 1397.01 35.36C1397.01 35.68 1397.02 35.94 1397.03 36.14C1397.05 36.6733 1397.17 37.2 1397.39 37.72C1397.63 38.24 1397.99 38.6733 1398.45 39.02C1398.93 39.3667 1399.54 39.54 1400.27 39.54Z" fill="white"/>
</svg>
